  0
SECTION
  2
HEADER
  9
$ANGBASE
  50
0.0
  9
$ANGDIR
  70
1
  9
$MEASUREMENT
  70
1
  0
ENDSEC
  0
SECTION
  2
TABLES
  0
TABLE
  2
LTYPE
  70
4
  0
LTYPE
  5
40F
  2
CONTINUOUS
  70
0
  3
Solid line
  72
65
  73
0
  40
0.0
  0
LTYPE
  5
410
  2
DASHDOT
 70
0
  3
Dash Dot ____ _ ____ _
 72
65
 73
4
 40
2.0
 49
1.25
 49
-0.25
 49
0.25
 49
-0.25
  0
LTYPE
  5
411
  2
DASHED
 70
0
  3
Dashed __ __ __ __ __
 72
65
 73
2
 40
0.75
 49
0.5
 49
-0.25
  0
LTYPE
  5
43B
  2
DOTTED
 70
0
  3
Dotted .  .  .  .
 72
65
 73
2
 40
0.2
 49
0.0
 49
-0.2
  0
ENDTAB
  0
TABLE
  2
STYLE
  70
4
  0
STYLE
  2
KICAD
  70
0
  40
0
  41
1
  42
1
  50
0
  71
0
  3
isocp.shx
  0
STYLE
  2
KICADB
  70
0
  40
0
  41
1
  42
1
  50
0
  71
0
  3
isocp.shx
  0
STYLE
  2
KICADI
  70
0
  40
0
  41
1
  42
1
  50
15
  71
0
  3
isocp.shx
  0
STYLE
  2
KICADBI
  70
0
  40
0
  41
1
  42
1
  50
15
  71
0
  3
isocp.shx
  0
ENDTAB
  0
TABLE
  2
LAYER
  70
1
  0
LAYER
  2
BLACK
  70
0
  62
7
  6
CONTINUOUS
  0
ENDTAB
  0
ENDSEC
  0
SECTION
  2
ENTITIES
0
LINE
8
BLACK
6
CONTINUOUS
10
126
20
-54
11
128
21
-54
0
LINE
8
BLACK
6
CONTINUOUS
10
113
20
-54
11
113
21
-74
0
LINE
8
BLACK
6
CONTINUOUS
10
108
20
-74
11
108
21
-54
0
LINE
8
BLACK
6
CONTINUOUS
10
74
20
-54
11
66
21
-53.99
0
LINE
8
BLACK
6
CONTINUOUS
10
89
20
-54
11
89
21
-74
0
LINE
8
BLACK
6
CONTINUOUS
10
104
20
-54
11
104
21
-74
0
LINE
8
BLACK
6
CONTINUOUS
10
137
20
-74
11
138
21
-74
0
LINE
8
BLACK
6
CONTINUOUS
10
80
20
-74
11
81
21
-74
0
LINE
8
BLACK
6
CONTINUOUS
10
92
20
-74
11
93
21
-74
0
LINE
8
BLACK
6
CONTINUOUS
10
84
20
-54
11
86
21
-54
0
LINE
8
BLACK
6
CONTINUOUS
10
101
20
-54
11
101
21
-74
0
LINE
8
BLACK
6
CONTINUOUS
10
78
20
-74
11
78
21
-54
0
LINE
8
BLACK
6
CONTINUOUS
10
128
20
-74
11
129
21
-74
0
LINE
8
BLACK
6
CONTINUOUS
10
75
20
-74
11
75
21
-54
0
LINE
8
BLACK
6
CONTINUOUS
10
107
20
-74
11
108
21
-74
0
LINE
8
BLACK
6
CONTINUOUS
10
113
20
-74
11
114
21
-74
0
LINE
8
BLACK
6
CONTINUOUS
10
135
20
-54
11
137
21
-54
0
LINE
8
BLACK
6
CONTINUOUS
10
78
20
-54
11
80
21
-54
0
LINE
8
BLACK
6
CONTINUOUS
10
105
20
-74
11
105
21
-54
0
LINE
8
BLACK
6
CONTINUOUS
10
119
20
-74
11
120
21
-74
0
LINE
8
BLACK
6
CONTINUOUS
10
83
20
-54
11
83
21
-74
0
LINE
8
BLACK
6
CONTINUOUS
10
138
20
-54
11
146
21
-54
0
LINE
8
BLACK
6
CONTINUOUS
10
87
20
-54
11
89
21
-54
0
LINE
8
BLACK
6
CONTINUOUS
10
116
20
-74
11
117
21
-74
0
LINE
8
BLACK
6
CONTINUOUS
10
95
20
-54
11
95
21
-74
0
LINE
8
BLACK
6
CONTINUOUS
10
134
20
-54
11
134
21
-74
0
CIRCLE
8
BLACK
10
142
20
-58
40
1.5
0
LINE
8
BLACK
6
CONTINUOUS
10
99
20
-74
11
99
21
-54
0
LINE
8
BLACK
6
CONTINUOUS
10
90
20
-54
11
92
21
-54
0
LINE
8
BLACK
6
CONTINUOUS
10
104
20
-74
11
105
21
-74
0
LINE
8
BLACK
6
CONTINUOUS
10
146
20
-78.99
11
146
21
-54
0
LINE
8
BLACK
6
CONTINUOUS
10
122
20
-54
11
122
21
-74
0
LINE
8
BLACK
6
CONTINUOUS
10
126
20
-74
11
126
21
-54
0
LINE
8
BLACK
6
CONTINUOUS
10
98
20
-54
11
98
21
-74
0
LINE
8
BLACK
6
CONTINUOUS
10
101
20
-74
11
102
21
-74
0
LINE
8
BLACK
6
CONTINUOUS
10
81
20
-74
11
81
21
-54
0
LINE
8
BLACK
6
CONTINUOUS
10
110
20
-74
11
111
21
-74
0
LINE
8
BLACK
6
CONTINUOUS
10
102
20
-54
11
102
21
-74
0
LINE
8
BLACK
6
CONTINUOUS
10
93
20
-74
11
93
21
-54
0
LINE
8
BLACK
6
CONTINUOUS
10
84
20
-74
11
84
21
-54
0
LINE
8
BLACK
6
CONTINUOUS
10
134
20
-74
11
135
21
-74
0
LINE
8
BLACK
6
CONTINUOUS
10
131
20
-74
11
132
21
-74
0
LINE
8
BLACK
6
CONTINUOUS
10
87
20
-54
11
87
21
-74
0
LINE
8
BLACK
6
CONTINUOUS
10
123
20
-74
11
123
21
-54
0
LINE
8
BLACK
6
CONTINUOUS
10
131
20
-54
11
131
21
-74
0
LINE
8
BLACK
6
CONTINUOUS
10
129
20
-74
11
129
21
-54
0
LINE
8
BLACK
6
CONTINUOUS
10
66
20
-78.99
11
146
21
-78.99
0
LINE
8
BLACK
6
CONTINUOUS
10
111
20
-54
11
113
21
-54
0
CIRCLE
8
BLACK
10
70
20
-58
40
1.5
0
LINE
8
BLACK
6
CONTINUOUS
10
132
20
-54
11
134
21
-54
0
LINE
8
BLACK
6
CONTINUOUS
10
114
20
-54
11
116
21
-54
0
LINE
8
BLACK
6
CONTINUOUS
10
125
20
-74
11
126
21
-74
0
LINE
8
BLACK
6
CONTINUOUS
10
93
20
-54
11
95
21
-54
0
LINE
8
BLACK
6
CONTINUOUS
10
123
20
-54
11
125
21
-54
0
LINE
8
BLACK
6
CONTINUOUS
10
114
20
-74
11
114
21
-54
0
LINE
8
BLACK
6
CONTINUOUS
10
138
20
-74
11
138
21
-54
0
LINE
8
BLACK
6
CONTINUOUS
10
102
20
-54
11
104
21
-54
0
LINE
8
BLACK
6
CONTINUOUS
10
120
20
-54
11
122
21
-54
0
LINE
8
BLACK
6
CONTINUOUS
10
107
20
-54
11
107
21
-74
0
CIRCLE
8
BLACK
10
70
20
-75
40
1.5
0
LINE
8
BLACK
6
CONTINUOUS
10
135
20
-74
11
135
21
-54
0
LINE
8
BLACK
6
CONTINUOUS
10
116
20
-54
11
116
21
-74
0
LINE
8
BLACK
6
CONTINUOUS
10
99
20
-54
11
101
21
-54
0
LINE
8
BLACK
6
CONTINUOUS
10
86
20
-74
11
87
21
-74
0
LINE
8
BLACK
6
CONTINUOUS
10
95
20
-74
11
96
21
-74
0
LINE
8
BLACK
6
CONTINUOUS
10
117
20
-54
11
117
21
-74
0
LINE
8
BLACK
6
CONTINUOUS
10
108
20
-54
11
110
21
-54
0
LINE
8
BLACK
6
CONTINUOUS
10
77
20
-54
11
77
21
-74
0
LINE
8
BLACK
6
CONTINUOUS
10
80
20
-54
11
80
21
-74
0
LINE
8
BLACK
6
CONTINUOUS
10
128
20
-54
11
128
21
-74
0
LINE
8
BLACK
6
CONTINUOUS
10
98
20
-74
11
99
21
-74
0
LINE
8
BLACK
6
CONTINUOUS
10
125
20
-54
11
125
21
-74
0
CIRCLE
8
BLACK
10
142
20
-75
40
1.5
0
LINE
8
BLACK
6
CONTINUOUS
10
111
20
-74
11
111
21
-54
0
LINE
8
BLACK
6
CONTINUOUS
10
83
20
-74
11
84
21
-74
0
LINE
8
BLACK
6
CONTINUOUS
10
74
20
-54
11
74
21
-74
0
LINE
8
BLACK
6
CONTINUOUS
10
77
20
-74
11
78
21
-74
0
LINE
8
BLACK
6
CONTINUOUS
10
74
20
-74
11
75
21
-74
0
LINE
8
BLACK
6
CONTINUOUS
10
75
20
-54
11
77
21
-54
0
LINE
8
BLACK
6
CONTINUOUS
10
81
20
-54
11
83
21
-54
0
LINE
8
BLACK
6
CONTINUOUS
10
110
20
-54
11
110
21
-74
0
LINE
8
BLACK
6
CONTINUOUS
10
105
20
-54
11
107
21
-54
0
LINE
8
BLACK
6
CONTINUOUS
10
96
20
-54
11
98
21
-54
0
LINE
8
BLACK
6
CONTINUOUS
10
132
20
-54
11
132
21
-74
0
LINE
8
BLACK
6
CONTINUOUS
10
66
20
-53.99
11
66
21
-78.99
0
LINE
8
BLACK
6
CONTINUOUS
10
89
20
-74
11
90
21
-74
0
LINE
8
BLACK
6
CONTINUOUS
10
120
20
-74
11
120
21
-54
0
LINE
8
BLACK
6
CONTINUOUS
10
90
20
-74
11
90
21
-54
0
LINE
8
BLACK
6
CONTINUOUS
10
137
20
-54
11
137
21
-74
0
LINE
8
BLACK
6
CONTINUOUS
10
117
20
-54
11
119
21
-54
0
LINE
8
BLACK
6
CONTINUOUS
10
129
20
-54
11
131
21
-54
0
LINE
8
BLACK
6
CONTINUOUS
10
86
20
-54
11
86
21
-74
0
LINE
8
BLACK
6
CONTINUOUS
10
119
20
-54
11
119
21
-74
0
LINE
8
BLACK
6
CONTINUOUS
10
122
20
-74
11
123
21
-74
0
LINE
8
BLACK
6
CONTINUOUS
10
96
20
-74
11
96
21
-54
0
LINE
8
BLACK
6
CONTINUOUS
10
92
20
-54
11
92
21
-74
  0
ENDSEC
  0
EOF
